# xmcd CD database file
#
# Track frame offsets:
#	150
#	20577
#	41360
#	63870
#	84712
#
# Disc length: 1377 seconds
#
# Revision: 0
# Processed by: cddbd v1.5.1PL0 Copyright (c) Steve Scherf et al.
# Submitted via: CDex 1.51
#
DISCID=35055f05
DTITLE=spiritual vibes - tender blue
DYEAR=1995
DGENRE=JPop
TTITLE0=01.MIDORI NO UMI
TTITLE1=02.*(asterisk)
TTITLE2=03.Albireo
TTITLE3=04.*(asterisk)Part2(4 beat dub)
TTITLE4=05.MIDORI NO UMI(calm dawn mix)
EXTD=YEAR: 1995
EXTT0=
EXTT1=
EXTT2=
EXTT3=
EXTT4=
PLAYORDER=
